<mxfile host="app.diagrams.net" modified="2022-08-12T20:12:30.442Z" agent="5.0 (Windows NT 10.0; Win64; x64) AppleWebKit/537.36 (KHTML, like Gecko) Chrome/104.0.0.0 Safari/537.36" etag="lu-RjN2_ZUMmS_DnMzBZ" version="20.2.3" type="github">
  <diagram id="9Te4pjNehfaBVy_GRThj" name="Página-1">
    <mxGraphModel dx="2017" dy="1588" grid="1" gridSize="10" guides="1" tooltips="1" connect="1" arrows="1" fold="1" page="1" pageScale="1" pageWidth="827" pageHeight="1169" math="0" shadow="0">
      <root>
        <mxCell id="0" />
        <mxCell id="1" parent="0" />
        <UserObject label="Logado?" lucidchartObjectId="XOjHSkX8kQoo" id="vrkqQlgJS52YbvUf7Ecs-1">
          <mxCell style="html=1;overflow=block;blockSpacing=1;whiteSpace=wrap;rhombus;fontSize=13;fontColor=default;align=center;spacing=3.8;strokeOpacity=100;fillOpacity=100;rounded=1;absoluteArcSize=1;arcSize=7.5;fillColor=#ffffff;strokeWidth=0.8;" parent="1" vertex="1">
            <mxGeometry x="1639" y="150" width="120" height="90" as="geometry" />
          </mxCell>
        </UserObject>
        <UserObject label="" lucidchartObjectId="ZOjHbGPP~kHC" id="vrkqQlgJS52YbvUf7Ecs-2">
          <mxCell style="html=1;jettySize=18;whiteSpace=wrap;fontSize=13;fontColor=default;align=center;strokeColor=#333333;strokeOpacity=100;strokeWidth=0.8;rounded=1;arcSize=24;edgeStyle=orthogonalEdgeStyle;startArrow=none;endArrow=block;endFill=1;exitX=0.988;exitY=0.5;exitPerimeter=0;entryX=0.012;entryY=0.5;entryPerimeter=0;" parent="1" source="vrkqQlgJS52YbvUf7Ecs-1" target="vrkqQlgJS52YbvUf7Ecs-6" edge="1">
            <mxGeometry width="100" height="100" relative="1" as="geometry">
              <Array as="points" />
            </mxGeometry>
          </mxCell>
        </UserObject>
        <mxCell id="vrkqQlgJS52YbvUf7Ecs-3" value="Sim" style="text;html=1;resizable=0;labelBackgroundColor=default;align=center;verticalAlign=middle;fontColor=default;fontSize=13;" parent="vrkqQlgJS52YbvUf7Ecs-2" vertex="1">
          <mxGeometry relative="1" as="geometry" />
        </mxCell>
        <UserObject label="" lucidchartObjectId="1OjHkATYILec" id="vrkqQlgJS52YbvUf7Ecs-4">
          <mxCell style="html=1;jettySize=18;whiteSpace=wrap;fontSize=13;fontColor=default;align=center;strokeColor=#333333;strokeOpacity=100;strokeWidth=0.8;rounded=1;arcSize=24;edgeStyle=orthogonalEdgeStyle;startArrow=none;endArrow=block;endFill=1;exitX=0.012;exitY=0.5;exitPerimeter=0;entryX=1.003;entryY=0.5;entryPerimeter=0;" parent="1" source="vrkqQlgJS52YbvUf7Ecs-1" target="vrkqQlgJS52YbvUf7Ecs-7" edge="1">
            <mxGeometry width="100" height="100" relative="1" as="geometry">
              <Array as="points" />
            </mxGeometry>
          </mxCell>
        </UserObject>
        <mxCell id="vrkqQlgJS52YbvUf7Ecs-5" value="NÃO" style="text;html=1;resizable=0;labelBackgroundColor=default;align=center;verticalAlign=middle;fontColor=default;fontSize=13;" parent="vrkqQlgJS52YbvUf7Ecs-4" vertex="1">
          <mxGeometry relative="1" as="geometry" />
        </mxCell>
        <UserObject label="Colaborador?" lucidchartObjectId="FPjHzdDUfq2x" id="vrkqQlgJS52YbvUf7Ecs-6">
          <mxCell style="html=1;overflow=block;blockSpacing=1;whiteSpace=wrap;rhombus;fontSize=13;fontColor=default;align=center;spacing=3.8;strokeOpacity=100;fillOpacity=100;rounded=1;absoluteArcSize=1;arcSize=7.5;fillColor=#ffffff;strokeWidth=0.8;" parent="1" vertex="1">
            <mxGeometry x="1950" y="150" width="120" height="90" as="geometry" />
          </mxCell>
        </UserObject>
        <UserObject label="Página Login" lucidchartObjectId="-SjHV7Z_Ojkh" id="vrkqQlgJS52YbvUf7Ecs-7">
          <mxCell style="html=1;overflow=block;blockSpacing=1;whiteSpace=wrap;fontSize=13;fontColor=default;align=center;spacing=9;strokeOpacity=100;fillOpacity=100;rounded=1;absoluteArcSize=1;arcSize=7.5;fillColor=#ffffff;strokeWidth=0.8;" parent="1" vertex="1">
            <mxGeometry x="1399" y="150" width="120" height="90" as="geometry" />
          </mxCell>
        </UserObject>
        <UserObject label="Cadastro" lucidchartObjectId="jUjHEkPG7Bgk" id="vrkqQlgJS52YbvUf7Ecs-8">
          <mxCell style="html=1;overflow=block;blockSpacing=1;whiteSpace=wrap;fontSize=13;fontColor=default;align=center;spacing=9;strokeOpacity=100;fillOpacity=100;rounded=1;absoluteArcSize=1;arcSize=7.5;fillColor=#ffffff;strokeWidth=0.8;" parent="1" vertex="1">
            <mxGeometry x="945" y="150" width="120" height="90" as="geometry" />
          </mxCell>
        </UserObject>
        <UserObject label="" lucidchartObjectId="JVjHKe44sZPK" id="vrkqQlgJS52YbvUf7Ecs-9">
          <mxCell style="html=1;jettySize=18;whiteSpace=wrap;fontSize=13;fontColor=default;align=center;strokeColor=#333333;strokeOpacity=100;strokeWidth=0.8;rounded=1;arcSize=24;edgeStyle=orthogonalEdgeStyle;startArrow=none;endArrow=block;endFill=1;exitX=0.5;exitY=0.99;exitPerimeter=0;entryX=0.5;entryY=-0.004;entryPerimeter=0;" parent="1" source="vrkqQlgJS52YbvUf7Ecs-6" target="vrkqQlgJS52YbvUf7Ecs-11" edge="1">
            <mxGeometry width="100" height="100" relative="1" as="geometry">
              <Array as="points" />
            </mxGeometry>
          </mxCell>
        </UserObject>
        <mxCell id="vrkqQlgJS52YbvUf7Ecs-10" value="Sim" style="text;html=1;resizable=0;labelBackgroundColor=default;align=center;verticalAlign=middle;fontColor=default;fontSize=13;" parent="vrkqQlgJS52YbvUf7Ecs-9" vertex="1">
          <mxGeometry relative="1" as="geometry" />
        </mxCell>
        <mxCell id="sPe80ZtbJHRSRIVwxXJf-6" style="edgeStyle=orthogonalEdgeStyle;rounded=0;orthogonalLoop=1;jettySize=auto;html=1;exitX=0;exitY=0.5;exitDx=0;exitDy=0;entryX=1;entryY=0.5;entryDx=0;entryDy=0;" edge="1" parent="1" source="vrkqQlgJS52YbvUf7Ecs-11" target="vrkqQlgJS52YbvUf7Ecs-46">
          <mxGeometry relative="1" as="geometry" />
        </mxCell>
        <mxCell id="sPe80ZtbJHRSRIVwxXJf-7" style="edgeStyle=orthogonalEdgeStyle;rounded=0;orthogonalLoop=1;jettySize=auto;html=1;exitX=0.5;exitY=1;exitDx=0;exitDy=0;entryX=1;entryY=0.5;entryDx=0;entryDy=0;" edge="1" parent="1" source="vrkqQlgJS52YbvUf7Ecs-11" target="vrkqQlgJS52YbvUf7Ecs-48">
          <mxGeometry relative="1" as="geometry" />
        </mxCell>
        <UserObject label="Página Principal Colaborador" lucidchartObjectId="sWjHzafBdCS7" id="vrkqQlgJS52YbvUf7Ecs-11">
          <mxCell style="html=1;overflow=block;blockSpacing=1;whiteSpace=wrap;fontSize=13;fontColor=default;align=center;spacing=9;strokeOpacity=100;fillOpacity=100;rounded=1;absoluteArcSize=1;arcSize=7.5;fillColor=#ffffff;strokeWidth=0.8;" parent="1" vertex="1">
            <mxGeometry x="1950" y="375" width="120" height="90" as="geometry" />
          </mxCell>
        </UserObject>
        <UserObject label="" lucidchartObjectId="kXjHMBJE1-88" id="vrkqQlgJS52YbvUf7Ecs-12">
          <mxCell style="html=1;jettySize=18;whiteSpace=wrap;fontSize=13;strokeColor=#008a0e;strokeOpacity=100;strokeWidth=1.5;rounded=1;arcSize=24;edgeStyle=orthogonalEdgeStyle;startArrow=none;endArrow=block;endFill=1;exitX=0.5;exitY=1.004;exitPerimeter=0;entryX=0.012;entryY=0.5;entryPerimeter=0;" parent="1" source="vrkqQlgJS52YbvUf7Ecs-8" target="vrkqQlgJS52YbvUf7Ecs-6" edge="1">
            <mxGeometry width="100" height="100" relative="1" as="geometry">
              <Array as="points">
                <mxPoint x="1005" y="285" />
                <mxPoint x="1876" y="285" />
                <mxPoint x="1876" y="195" />
              </Array>
            </mxGeometry>
          </mxCell>
        </UserObject>
        <mxCell id="vrkqQlgJS52YbvUf7Ecs-13" value="Logar" style="text;html=1;resizable=0;labelBackgroundColor=default;align=center;verticalAlign=middle;fontColor=default;fontSize=13;" parent="vrkqQlgJS52YbvUf7Ecs-12" vertex="1">
          <mxGeometry x="0.05636346920956803" relative="1" as="geometry" />
        </mxCell>
        <UserObject label="Formulário de rembolso" lucidchartObjectId="pXjHs4u4kQ.9" id="vrkqQlgJS52YbvUf7Ecs-14">
          <mxCell style="html=1;overflow=block;blockSpacing=1;whiteSpace=wrap;fontSize=13;fontColor=default;align=center;spacing=9;strokeOpacity=100;fillOpacity=100;rounded=1;absoluteArcSize=1;arcSize=7.5;fillColor=#ffffff;strokeWidth=0.8;" parent="1" vertex="1">
            <mxGeometry x="1950" y="660" width="120" height="90" as="geometry" />
          </mxCell>
        </UserObject>
        <UserObject label="" lucidchartObjectId="sYjHj3mG5-hl" id="vrkqQlgJS52YbvUf7Ecs-15">
          <mxCell style="html=1;jettySize=18;whiteSpace=wrap;fontSize=13;fontColor=default;align=center;strokeColor=#333333;strokeOpacity=100;strokeWidth=0.8;rounded=1;arcSize=24;edgeStyle=orthogonalEdgeStyle;startArrow=none;endArrow=block;endFill=1;exitX=0.988;exitY=0.5;exitPerimeter=0;entryX=0.012;entryY=0.5;entryPerimeter=0;" parent="1" source="vrkqQlgJS52YbvUf7Ecs-6" target="vrkqQlgJS52YbvUf7Ecs-18" edge="1">
            <mxGeometry width="100" height="100" relative="1" as="geometry">
              <Array as="points" />
            </mxGeometry>
          </mxCell>
        </UserObject>
        <mxCell id="vrkqQlgJS52YbvUf7Ecs-16" value="NÃO" style="text;html=1;resizable=0;labelBackgroundColor=default;align=center;verticalAlign=middle;fontColor=default;fontSize=13;" parent="vrkqQlgJS52YbvUf7Ecs-15" vertex="1">
          <mxGeometry relative="1" as="geometry" />
        </mxCell>
        <UserObject label="Possui conta?" lucidchartObjectId="ZZjHur66PsgQ" id="vrkqQlgJS52YbvUf7Ecs-17">
          <mxCell style="html=1;overflow=block;blockSpacing=1;whiteSpace=wrap;rhombus;fontSize=13;fontColor=default;align=center;spacing=3.8;strokeOpacity=100;fillOpacity=100;rounded=1;absoluteArcSize=1;arcSize=7.5;fillColor=#ffffff;strokeWidth=0.8;" parent="1" vertex="1">
            <mxGeometry x="1172" y="150" width="120" height="90" as="geometry" />
          </mxCell>
        </UserObject>
        <UserObject label="Gestor?" lucidchartObjectId="50jH91rScGbd" id="vrkqQlgJS52YbvUf7Ecs-18">
          <mxCell style="html=1;overflow=block;blockSpacing=1;whiteSpace=wrap;rhombus;fontSize=13;fontColor=default;align=center;spacing=3.8;strokeOpacity=100;fillOpacity=100;rounded=1;absoluteArcSize=1;arcSize=7.5;fillColor=#ffffff;strokeWidth=0.8;" parent="1" vertex="1">
            <mxGeometry x="2220" y="150" width="120" height="90" as="geometry" />
          </mxCell>
        </UserObject>
        <UserObject label="" lucidchartObjectId="x1jHyu-e1T4~" id="vrkqQlgJS52YbvUf7Ecs-19">
          <mxCell style="html=1;jettySize=18;whiteSpace=wrap;fontSize=13;fontColor=default;align=center;strokeColor=#333333;strokeOpacity=100;strokeWidth=0.8;rounded=1;arcSize=24;edgeStyle=orthogonalEdgeStyle;startArrow=none;endArrow=block;endFill=1;exitX=0.5;exitY=0.99;exitPerimeter=0;entryX=0.5;entryY=-0.004;entryPerimeter=0;" parent="1" source="vrkqQlgJS52YbvUf7Ecs-18" target="vrkqQlgJS52YbvUf7Ecs-21" edge="1">
            <mxGeometry width="100" height="100" relative="1" as="geometry">
              <Array as="points" />
            </mxGeometry>
          </mxCell>
        </UserObject>
        <mxCell id="vrkqQlgJS52YbvUf7Ecs-20" value="Sim" style="text;html=1;resizable=0;labelBackgroundColor=default;align=center;verticalAlign=middle;fontColor=default;fontSize=13;" parent="vrkqQlgJS52YbvUf7Ecs-19" vertex="1">
          <mxGeometry relative="1" as="geometry" />
        </mxCell>
        <mxCell id="sPe80ZtbJHRSRIVwxXJf-3" style="edgeStyle=orthogonalEdgeStyle;rounded=0;orthogonalLoop=1;jettySize=auto;html=1;exitX=1;exitY=0.5;exitDx=0;exitDy=0;" edge="1" parent="1" source="vrkqQlgJS52YbvUf7Ecs-21" target="vrkqQlgJS52YbvUf7Ecs-54">
          <mxGeometry relative="1" as="geometry" />
        </mxCell>
        <mxCell id="sPe80ZtbJHRSRIVwxXJf-5" style="edgeStyle=orthogonalEdgeStyle;rounded=0;orthogonalLoop=1;jettySize=auto;html=1;exitX=0;exitY=0.5;exitDx=0;exitDy=0;" edge="1" parent="1" source="vrkqQlgJS52YbvUf7Ecs-21" target="vrkqQlgJS52YbvUf7Ecs-52">
          <mxGeometry relative="1" as="geometry" />
        </mxCell>
        <UserObject label="Página Gestor (lista de tickets para aprovação)" lucidchartObjectId="z1jH.JxwAUMr" id="vrkqQlgJS52YbvUf7Ecs-21">
          <mxCell style="html=1;overflow=block;blockSpacing=1;whiteSpace=wrap;fontSize=13;fontColor=default;align=center;spacing=9;strokeOpacity=100;fillOpacity=100;rounded=1;absoluteArcSize=1;arcSize=7.5;fillColor=#ffffff;strokeWidth=0.8;" parent="1" vertex="1">
            <mxGeometry x="2220" y="375" width="120" height="90" as="geometry" />
          </mxCell>
        </UserObject>
        <UserObject label="" lucidchartObjectId="x2jH_sxb1UuH" id="vrkqQlgJS52YbvUf7Ecs-22">
          <mxCell style="html=1;jettySize=18;whiteSpace=wrap;fontSize=13;strokeColor=#333333;strokeOpacity=100;strokeWidth=0.8;rounded=1;arcSize=24;edgeStyle=orthogonalEdgeStyle;startArrow=none;endArrow=block;endFill=1;exitX=-0.003;exitY=0.5;exitPerimeter=0;entryX=0.988;entryY=0.5;entryPerimeter=0;" parent="1" source="vrkqQlgJS52YbvUf7Ecs-7" target="vrkqQlgJS52YbvUf7Ecs-17" edge="1">
            <mxGeometry width="100" height="100" relative="1" as="geometry">
              <Array as="points" />
            </mxGeometry>
          </mxCell>
        </UserObject>
        <UserObject label="" lucidchartObjectId="K2jHNzq8_0NA" id="vrkqQlgJS52YbvUf7Ecs-23">
          <mxCell style="html=1;jettySize=18;whiteSpace=wrap;fontSize=13;fontColor=default;align=center;strokeColor=#333333;strokeOpacity=100;strokeWidth=0.8;rounded=1;arcSize=24;edgeStyle=orthogonalEdgeStyle;startArrow=none;endArrow=block;endFill=1;exitX=0.5;exitY=0.99;exitPerimeter=0;entryX=0.012;entryY=0.5;entryPerimeter=0;" parent="1" source="vrkqQlgJS52YbvUf7Ecs-17" target="vrkqQlgJS52YbvUf7Ecs-6" edge="1">
            <mxGeometry width="100" height="100" relative="1" as="geometry">
              <Array as="points">
                <mxPoint x="1200" y="269" />
                <mxPoint x="1876" y="269" />
                <mxPoint x="1876" y="195" />
              </Array>
            </mxGeometry>
          </mxCell>
        </UserObject>
        <mxCell id="vrkqQlgJS52YbvUf7Ecs-24" value="Sim" style="text;html=1;resizable=0;labelBackgroundColor=default;align=center;verticalAlign=middle;fontColor=default;fontSize=13;" parent="vrkqQlgJS52YbvUf7Ecs-23" vertex="1">
          <mxGeometry relative="1" as="geometry" />
        </mxCell>
        <UserObject label="" lucidchartObjectId="b3jHCD5_3uqr" id="vrkqQlgJS52YbvUf7Ecs-25">
          <mxCell style="html=1;jettySize=18;whiteSpace=wrap;fontSize=13;fontColor=default;align=center;strokeColor=#333333;strokeOpacity=100;strokeWidth=0.8;rounded=1;arcSize=24;edgeStyle=orthogonalEdgeStyle;startArrow=none;endArrow=block;endFill=1;exitX=0.012;exitY=0.5;exitPerimeter=0;entryX=1.003;entryY=0.5;entryPerimeter=0;" parent="1" source="vrkqQlgJS52YbvUf7Ecs-17" target="vrkqQlgJS52YbvUf7Ecs-8" edge="1">
            <mxGeometry width="100" height="100" relative="1" as="geometry">
              <Array as="points" />
            </mxGeometry>
          </mxCell>
        </UserObject>
        <mxCell id="vrkqQlgJS52YbvUf7Ecs-26" value="NÃO" style="text;html=1;resizable=0;labelBackgroundColor=default;align=center;verticalAlign=middle;fontColor=default;fontSize=13;" parent="vrkqQlgJS52YbvUf7Ecs-25" vertex="1">
          <mxGeometry relative="1" as="geometry" />
        </mxCell>
        <UserObject label="" lucidchartObjectId="i3jHSAzazqEw" id="vrkqQlgJS52YbvUf7Ecs-27">
          <mxCell style="html=1;jettySize=18;whiteSpace=wrap;fontSize=13;fontColor=default;align=center;strokeColor=#333333;strokeOpacity=100;strokeWidth=0.8;rounded=1;arcSize=24;edgeStyle=orthogonalEdgeStyle;startArrow=none;endArrow=block;endFill=1;exitX=0.988;exitY=0.5;exitPerimeter=0;entryX=0.012;entryY=0.5;entryPerimeter=0;" parent="1" source="vrkqQlgJS52YbvUf7Ecs-38" target="vrkqQlgJS52YbvUf7Ecs-30" edge="1">
            <mxGeometry width="100" height="100" relative="1" as="geometry">
              <Array as="points" />
            </mxGeometry>
          </mxCell>
        </UserObject>
        <mxCell id="vrkqQlgJS52YbvUf7Ecs-28" value="NÃO" style="text;html=1;resizable=0;labelBackgroundColor=default;align=center;verticalAlign=middle;fontColor=default;fontSize=13;" parent="vrkqQlgJS52YbvUf7Ecs-27" vertex="1">
          <mxGeometry relative="1" as="geometry" />
        </mxCell>
        <mxCell id="vrkqQlgJS52YbvUf7Ecs-29" value="Não" style="text;html=1;resizable=0;labelBackgroundColor=default;align=center;verticalAlign=middle;fontColor=default;fontSize=13;" parent="vrkqQlgJS52YbvUf7Ecs-27" vertex="1">
          <mxGeometry relative="1" as="geometry" />
        </mxCell>
        <UserObject label="Administrador" lucidchartObjectId="j3jH9R9zQOyV" id="vrkqQlgJS52YbvUf7Ecs-30">
          <mxCell style="html=1;overflow=block;blockSpacing=1;whiteSpace=wrap;rhombus;fontSize=13;fontColor=default;align=center;spacing=3.8;strokeOpacity=100;fillOpacity=100;rounded=1;absoluteArcSize=1;arcSize=7.5;fillColor=#ffffff;strokeWidth=0.8;" parent="1" vertex="1">
            <mxGeometry x="2895" y="150" width="120" height="90" as="geometry" />
          </mxCell>
        </UserObject>
        <UserObject label="" lucidchartObjectId="08jHgqllUm8w" id="vrkqQlgJS52YbvUf7Ecs-31">
          <mxCell style="html=1;jettySize=18;whiteSpace=wrap;fontSize=13;fontColor=default;align=center;strokeColor=#333333;strokeOpacity=100;strokeWidth=0.8;rounded=1;arcSize=24;edgeStyle=orthogonalEdgeStyle;startArrow=none;endArrow=block;endFill=1;exitX=0.5;exitY=0.99;exitPerimeter=0;entryX=0.5;entryY=-0.004;entryPerimeter=0;" parent="1" source="vrkqQlgJS52YbvUf7Ecs-30" target="vrkqQlgJS52YbvUf7Ecs-33" edge="1">
            <mxGeometry width="100" height="100" relative="1" as="geometry">
              <Array as="points" />
            </mxGeometry>
          </mxCell>
        </UserObject>
        <mxCell id="vrkqQlgJS52YbvUf7Ecs-32" value="Sim" style="text;html=1;resizable=0;labelBackgroundColor=default;align=center;verticalAlign=middle;fontColor=default;fontSize=13;" parent="vrkqQlgJS52YbvUf7Ecs-31" vertex="1">
          <mxGeometry relative="1" as="geometry" />
        </mxCell>
        <UserObject label="Página principal" lucidchartObjectId="18jHpShaY8s." id="vrkqQlgJS52YbvUf7Ecs-33">
          <mxCell style="html=1;overflow=block;blockSpacing=1;whiteSpace=wrap;fontSize=13;fontColor=default;align=center;spacing=9;strokeOpacity=100;fillOpacity=100;rounded=1;absoluteArcSize=1;arcSize=7.5;fillColor=#ffffff;strokeWidth=0.8;" parent="1" vertex="1">
            <mxGeometry x="2895" y="375" width="120" height="90" as="geometry" />
          </mxCell>
        </UserObject>
        <UserObject label="" lucidchartObjectId="r9jH2ByoxzI-" id="vrkqQlgJS52YbvUf7Ecs-34">
          <mxCell style="html=1;jettySize=18;whiteSpace=wrap;fontSize=13;strokeColor=#333333;strokeOpacity=100;strokeWidth=0.8;rounded=1;arcSize=24;edgeStyle=orthogonalEdgeStyle;startArrow=none;endArrow=block;endFill=1;exitX=1.003;exitY=0.5;exitPerimeter=0;entryX=-0.003;entryY=0.5;entryPerimeter=0;" parent="1" source="vrkqQlgJS52YbvUf7Ecs-33" target="vrkqQlgJS52YbvUf7Ecs-35" edge="1">
            <mxGeometry width="100" height="100" relative="1" as="geometry">
              <Array as="points" />
            </mxGeometry>
          </mxCell>
        </UserObject>
        <UserObject label="Página situação reembolso do gestor " lucidchartObjectId="s9jHhhvXoVMG" id="vrkqQlgJS52YbvUf7Ecs-35">
          <mxCell style="html=1;overflow=block;blockSpacing=1;whiteSpace=wrap;fontSize=13;fontColor=default;align=center;spacing=9;strokeOpacity=100;fillOpacity=100;rounded=1;absoluteArcSize=1;arcSize=7.5;fillColor=#ffffff;strokeWidth=0.8;" parent="1" vertex="1">
            <mxGeometry x="3150" y="375" width="120" height="90" as="geometry" />
          </mxCell>
        </UserObject>
        <UserObject label="" lucidchartObjectId="X9jHYRoA8-Ne" id="vrkqQlgJS52YbvUf7Ecs-36">
          <mxCell style="html=1;jettySize=18;whiteSpace=wrap;fontSize=13;strokeColor=#333333;strokeOpacity=100;strokeWidth=0.8;rounded=1;arcSize=24;edgeStyle=orthogonalEdgeStyle;startArrow=none;endArrow=block;endFill=1;exitX=0.5;exitY=1.004;exitPerimeter=0;entryX=0.5;entryY=-0.004;entryPerimeter=0;" parent="1" source="vrkqQlgJS52YbvUf7Ecs-33" target="vrkqQlgJS52YbvUf7Ecs-37" edge="1">
            <mxGeometry width="100" height="100" relative="1" as="geometry">
              <Array as="points" />
            </mxGeometry>
          </mxCell>
        </UserObject>
        <UserObject label="Página situação reembolso do financeiro" lucidchartObjectId="Y9jHQy9kGFIi" id="vrkqQlgJS52YbvUf7Ecs-37">
          <mxCell style="html=1;overflow=block;blockSpacing=1;whiteSpace=wrap;fontSize=13;fontColor=default;align=center;spacing=9;strokeOpacity=100;fillOpacity=100;rounded=1;absoluteArcSize=1;arcSize=7.5;fillColor=#ffffff;strokeWidth=0.8;" parent="1" vertex="1">
            <mxGeometry x="2895" y="585" width="120" height="90" as="geometry" />
          </mxCell>
        </UserObject>
        <UserObject label="Financeiro?" lucidchartObjectId="K-jHoJWLSJks" id="vrkqQlgJS52YbvUf7Ecs-38">
          <mxCell style="html=1;overflow=block;blockSpacing=1;whiteSpace=wrap;rhombus;fontSize=13;fontColor=default;align=center;spacing=3.8;strokeOpacity=100;fillOpacity=100;rounded=1;absoluteArcSize=1;arcSize=7.5;fillColor=#ffffff;strokeWidth=0.8;" parent="1" vertex="1">
            <mxGeometry x="2505" y="150" width="120" height="90" as="geometry" />
          </mxCell>
        </UserObject>
        <UserObject label="" lucidchartObjectId="K-jHABhFNWMM" id="vrkqQlgJS52YbvUf7Ecs-39">
          <mxCell style="html=1;jettySize=18;whiteSpace=wrap;fontSize=13;fontColor=default;align=center;strokeColor=#333333;strokeOpacity=100;strokeWidth=0.8;rounded=1;arcSize=24;edgeStyle=orthogonalEdgeStyle;startArrow=none;endArrow=block;endFill=1;exitX=0.5;exitY=0.99;exitPerimeter=0;entryX=0.5;entryY=-0.004;entryPerimeter=0;" parent="1" source="vrkqQlgJS52YbvUf7Ecs-38" target="vrkqQlgJS52YbvUf7Ecs-41" edge="1">
            <mxGeometry width="100" height="100" relative="1" as="geometry">
              <Array as="points" />
            </mxGeometry>
          </mxCell>
        </UserObject>
        <mxCell id="vrkqQlgJS52YbvUf7Ecs-40" value="Sim" style="text;html=1;resizable=0;labelBackgroundColor=default;align=center;verticalAlign=middle;fontColor=default;fontSize=13;" parent="vrkqQlgJS52YbvUf7Ecs-39" vertex="1">
          <mxGeometry relative="1" as="geometry" />
        </mxCell>
        <mxCell id="sPe80ZtbJHRSRIVwxXJf-17" style="edgeStyle=orthogonalEdgeStyle;rounded=0;orthogonalLoop=1;jettySize=auto;html=1;entryX=0.5;entryY=0;entryDx=0;entryDy=0;" edge="1" parent="1" source="vrkqQlgJS52YbvUf7Ecs-41" target="vrkqQlgJS52YbvUf7Ecs-57">
          <mxGeometry relative="1" as="geometry" />
        </mxCell>
        <mxCell id="sPe80ZtbJHRSRIVwxXJf-19" style="edgeStyle=orthogonalEdgeStyle;rounded=0;orthogonalLoop=1;jettySize=auto;html=1;entryX=0.5;entryY=0;entryDx=0;entryDy=0;" edge="1" parent="1" source="vrkqQlgJS52YbvUf7Ecs-41" target="vrkqQlgJS52YbvUf7Ecs-56">
          <mxGeometry relative="1" as="geometry" />
        </mxCell>
        <UserObject label="Página Financeiro (lista de tickets para pagamento)" lucidchartObjectId="K-jHQDY4ecLm" id="vrkqQlgJS52YbvUf7Ecs-41">
          <mxCell style="html=1;overflow=block;blockSpacing=1;whiteSpace=wrap;fontSize=13;fontColor=default;align=center;spacing=9;strokeOpacity=100;fillOpacity=100;rounded=1;absoluteArcSize=1;arcSize=7.5;fillColor=#ffffff;strokeWidth=0.8;" parent="1" vertex="1">
            <mxGeometry x="2505" y="366" width="120" height="99" as="geometry" />
          </mxCell>
        </UserObject>
        <UserObject label="" lucidchartObjectId="P-jHFQ0VvLsF" id="vrkqQlgJS52YbvUf7Ecs-42">
          <mxCell style="html=1;jettySize=18;whiteSpace=wrap;fontSize=13;fontColor=default;align=center;strokeColor=#333333;strokeOpacity=100;strokeWidth=0.8;rounded=1;arcSize=24;edgeStyle=orthogonalEdgeStyle;startArrow=none;endArrow=block;endFill=1;exitX=0.988;exitY=0.5;exitPerimeter=0;entryX=0.012;entryY=0.5;entryPerimeter=0;" parent="1" source="vrkqQlgJS52YbvUf7Ecs-18" target="vrkqQlgJS52YbvUf7Ecs-38" edge="1">
            <mxGeometry width="100" height="100" relative="1" as="geometry">
              <Array as="points" />
            </mxGeometry>
          </mxCell>
        </UserObject>
        <mxCell id="vrkqQlgJS52YbvUf7Ecs-43" value="NÃO" style="text;html=1;resizable=0;labelBackgroundColor=default;align=center;verticalAlign=middle;fontColor=default;fontSize=13;" parent="vrkqQlgJS52YbvUf7Ecs-42" vertex="1">
          <mxGeometry relative="1" as="geometry" />
        </mxCell>
        <UserObject label="Solicitar reembolso" lucidchartObjectId="K.jHHEqBNAj9" id="vrkqQlgJS52YbvUf7Ecs-44">
          <mxCell style="html=1;overflow=block;blockSpacing=1;whiteSpace=wrap;rounded=1;arcSize=50;fontSize=13;fontColor=default;align=center;spacing=3.8;strokeOpacity=100;fillOpacity=100;fillColor=#ffffff;strokeWidth=0.8;" parent="1" vertex="1">
            <mxGeometry x="1800" y="420" width="120" height="60" as="geometry" />
          </mxCell>
        </UserObject>
        <UserObject label="" lucidchartObjectId="j~jH-YfkYjQ3" id="vrkqQlgJS52YbvUf7Ecs-45">
          <mxCell style="html=1;jettySize=18;whiteSpace=wrap;fontSize=13;strokeColor=#333333;strokeOpacity=100;strokeWidth=0.8;rounded=1;arcSize=24;edgeStyle=orthogonalEdgeStyle;startArrow=none;endArrow=block;endFill=1;exitX=-0.003;exitY=0.833;exitPerimeter=0;entryX=1.003;entryY=0.5;entryPerimeter=0;" parent="1" source="vrkqQlgJS52YbvUf7Ecs-11" target="vrkqQlgJS52YbvUf7Ecs-44" edge="1">
            <mxGeometry width="100" height="100" relative="1" as="geometry">
              <Array as="points" />
            </mxGeometry>
          </mxCell>
        </UserObject>
        <UserObject label="Vizualizar reembolsos" lucidchartObjectId="r~jHfPa4vsxw" id="vrkqQlgJS52YbvUf7Ecs-46">
          <mxCell style="html=1;overflow=block;blockSpacing=1;whiteSpace=wrap;rounded=1;arcSize=50;fontSize=13;fontColor=default;align=center;spacing=3.8;strokeOpacity=100;fillOpacity=100;fillColor=#ffffff;strokeWidth=0.8;" parent="1" vertex="1">
            <mxGeometry x="1800" y="345" width="120" height="60" as="geometry" />
          </mxCell>
        </UserObject>
        <UserObject label="Editar reembolso" lucidchartObjectId="hakHCrWoS5X6" id="vrkqQlgJS52YbvUf7Ecs-48">
          <mxCell style="html=1;overflow=block;blockSpacing=1;whiteSpace=wrap;rounded=1;arcSize=50;fontSize=13;fontColor=default;align=center;spacing=3.8;strokeOpacity=100;fillOpacity=100;fillColor=#ffffff;strokeWidth=0.8;" parent="1" vertex="1">
            <mxGeometry x="1800" y="494" width="120" height="60" as="geometry" />
          </mxCell>
        </UserObject>
        <UserObject label="Criar reembolso" lucidchartObjectId="sakH3zJF1S6a" id="vrkqQlgJS52YbvUf7Ecs-49">
          <mxCell style="html=1;overflow=block;blockSpacing=1;whiteSpace=wrap;rounded=1;arcSize=50;fontSize=13;fontColor=default;align=center;spacing=3.8;strokeOpacity=100;fillOpacity=100;fillColor=#ffffff;strokeWidth=0.8;" parent="1" vertex="1">
            <mxGeometry x="1950" y="795" width="120" height="60" as="geometry" />
          </mxCell>
        </UserObject>
        <UserObject label="" lucidchartObjectId="wakHd~fMb9Mz" id="vrkqQlgJS52YbvUf7Ecs-50">
          <mxCell style="html=1;jettySize=18;whiteSpace=wrap;fontSize=13;strokeColor=#333333;strokeOpacity=100;strokeWidth=0.8;rounded=1;arcSize=24;edgeStyle=orthogonalEdgeStyle;startArrow=none;endArrow=block;endFill=1;exitX=0.5;exitY=1.004;exitPerimeter=0;entryX=0.5;entryY=-0.006;entryPerimeter=0;" parent="1" source="vrkqQlgJS52YbvUf7Ecs-14" target="vrkqQlgJS52YbvUf7Ecs-49" edge="1">
            <mxGeometry width="100" height="100" relative="1" as="geometry">
              <Array as="points" />
            </mxGeometry>
          </mxCell>
        </UserObject>
        <UserObject label="Aprovar Reembolso" lucidchartObjectId="lbkH_YYwiW.1" id="vrkqQlgJS52YbvUf7Ecs-52">
          <mxCell style="html=1;overflow=block;blockSpacing=1;whiteSpace=wrap;rounded=1;arcSize=50;fontSize=13;fontColor=default;align=center;spacing=3.8;strokeOpacity=100;fillOpacity=100;fillColor=#ffffff;strokeWidth=0.8;" parent="1" vertex="1">
            <mxGeometry x="2130" y="510" width="120" height="60" as="geometry" />
          </mxCell>
        </UserObject>
        <UserObject label="Aprovar Reembolso" lucidchartObjectId="HbkHZcFG43we" id="vrkqQlgJS52YbvUf7Ecs-54">
          <mxCell style="html=1;overflow=block;blockSpacing=1;whiteSpace=wrap;rounded=1;arcSize=50;fontSize=13;fontColor=default;align=center;spacing=3.8;strokeOpacity=100;fillOpacity=100;fillColor=#ffffff;strokeWidth=0.8;" parent="1" vertex="1">
            <mxGeometry x="2310" y="510" width="120" height="60" as="geometry" />
          </mxCell>
        </UserObject>
        <UserObject label="Reprovar Pagamento" lucidchartObjectId="LckH8eQIEZZW" id="vrkqQlgJS52YbvUf7Ecs-56">
          <mxCell style="html=1;overflow=block;blockSpacing=1;whiteSpace=wrap;rounded=1;arcSize=50;fontSize=13;fontColor=default;align=center;spacing=3.8;strokeOpacity=100;fillOpacity=100;fillColor=#ffffff;strokeWidth=0.8;" parent="1" vertex="1">
            <mxGeometry x="2505" y="510" width="120" height="60" as="geometry" />
          </mxCell>
        </UserObject>
        <UserObject label="Aprovar Pagamento" lucidchartObjectId="OckHnAkZdJgW" id="vrkqQlgJS52YbvUf7Ecs-57">
          <mxCell style="html=1;overflow=block;blockSpacing=1;whiteSpace=wrap;rounded=1;arcSize=50;fontSize=13;fontColor=default;align=center;spacing=3.8;strokeOpacity=100;fillOpacity=100;fillColor=#ffffff;strokeWidth=0.8;" parent="1" vertex="1">
            <mxGeometry x="2660" y="460" width="120" height="60" as="geometry" />
          </mxCell>
        </UserObject>
        <UserObject label="" lucidchartObjectId="YckH2WH~U3.w" id="vrkqQlgJS52YbvUf7Ecs-58">
          <mxCell style="html=1;jettySize=18;whiteSpace=wrap;fontSize=13;strokeColor=#333333;strokeOpacity=100;strokeWidth=0.8;rounded=1;arcSize=24;edgeStyle=orthogonalEdgeStyle;startArrow=none;endArrow=block;endFill=1;exitX=-0.003;exitY=0.5;exitPerimeter=0;entryX=-0.003;entryY=0.5;entryPerimeter=0;" parent="1" source="vrkqQlgJS52YbvUf7Ecs-44" target="vrkqQlgJS52YbvUf7Ecs-14" edge="1">
            <mxGeometry width="100" height="100" relative="1" as="geometry">
              <Array as="points" />
            </mxGeometry>
          </mxCell>
        </UserObject>
        <UserObject label="" lucidchartObjectId="gdkH1vHZBj_3" id="vrkqQlgJS52YbvUf7Ecs-59">
          <mxCell style="html=1;jettySize=18;whiteSpace=wrap;fontSize=13;strokeColor=#333333;strokeOpacity=100;strokeWidth=0.8;rounded=1;arcSize=24;edgeStyle=orthogonalEdgeStyle;startArrow=none;endArrow=block;endFill=1;exitX=-0.003;exitY=0.5;exitPerimeter=0;entryX=-0.003;entryY=0.5;entryPerimeter=0;" parent="1" source="vrkqQlgJS52YbvUf7Ecs-48" target="vrkqQlgJS52YbvUf7Ecs-14" edge="1">
            <mxGeometry width="100" height="100" relative="1" as="geometry">
              <Array as="points" />
            </mxGeometry>
          </mxCell>
        </UserObject>
        <UserObject label="Excluir reembolso" lucidchartObjectId="wdkHw_5j_-xZ" id="vrkqQlgJS52YbvUf7Ecs-61">
          <mxCell style="html=1;overflow=block;blockSpacing=1;whiteSpace=wrap;rounded=1;arcSize=50;fontSize=13;fontColor=default;align=center;spacing=3.8;strokeOpacity=100;fillOpacity=100;fillColor=#ffffff;strokeWidth=0.8;" parent="1" vertex="1">
            <mxGeometry x="1800" y="567" width="120" height="60" as="geometry" />
          </mxCell>
        </UserObject>
      </root>
    </mxGraphModel>
  </diagram>
</mxfile>
